<svg width="39" height="39" viewBox="0 0 39 39" fill="none" xmlns="http://www.w3.org/2000/svg">
<path d="M30.875 30.875H8.125V13H30.875M26 1.625V4.875H13V1.625H9.75V4.875H8.125C6.32125 4.875 4.875 6.32125 4.875 8.125V30.875C4.875 31.737 5.21741 32.5636 5.8269 33.1731C6.4364 33.7826 7.26305 34.125 8.125 34.125H30.875C31.737 34.125 32.5636 33.7826 33.1731 33.1731C33.7826 32.5636 34.125 31.737 34.125 30.875V8.125C34.125 7.26305 33.7826 6.4364 33.1731 5.8269C32.5636 5.21741 31.737 4.875 30.875 4.875H29.25V1.625M27.625 19.5H19.5V27.625H27.625V19.5Z" fill="white"/>
</svg>
