<svg width="33" height="33" viewBox="0 0 33 33" fill="none" xmlns="http://www.w3.org/2000/svg">
<path d="M9 16.5L14.625 22.125L24 10.875M1.5 25.5V7.5C1.5 5.4 1.5 4.35 1.90875 3.5475C2.26875 2.84063 2.84063 2.26875 3.5475 1.90875C4.35 1.5 5.4 1.5 7.5 1.5H25.5C27.6 1.5 28.65 1.5 29.4506 1.90875C30.1575 2.26875 30.7312 2.84063 31.0912 3.5475C31.5 4.34812 31.5 5.39812 31.5 7.49438V25.5075C31.5 27.6038 31.5 28.6519 31.0912 29.4525C30.7312 30.1584 30.1569 30.732 29.4506 31.0912C28.65 31.5 27.6019 31.5 25.5056 31.5H7.49438C5.39812 31.5 4.34812 31.5 3.5475 31.0912C2.84192 30.7317 2.26827 30.1581 1.90875 29.4525C1.5 28.65 1.5 27.6 1.5 25.5Z" stroke="#008000" stroke-width="3" stroke-linecap="round" stroke-linejoin="round"/>
</svg>
