<svg width="31" height="32" viewBox="0 0 31 32" fill="none" xmlns="http://www.w3.org/2000/svg">
<path d="M12 30.0933H2.5C1.94772 30.0933 1.5 29.6456 1.5 29.0933V15.3614C1.5 15.0944 1.60683 14.8384 1.79669 14.6505L14.7967 1.78913C15.1863 1.40365 15.8137 1.40365 16.2033 1.78913L29.2033 14.6505C29.3932 14.8384 29.5 15.0944 29.5 15.3614V29.0933C29.5 29.6456 29.0523 30.0933 28.5 30.0933H19M12 30.0933V22.4366C12 21.8843 12.4477 21.4366 13 21.4366H18C18.5523 21.4366 19 21.8843 19 22.4366V30.0933M12 30.0933H19" stroke="#47A0DF" stroke-width="3" stroke-linecap="round"/>
</svg>
