<svg width="90" height="84" viewBox="0 0 90 84" fill="none" xmlns="http://www.w3.org/2000/svg">
<path d="M15.0395 14.5734C15.2381 11.7727 16.8342 2.93865 29 1.2606C40.4433 -0.317779 45.0447 5.68075 46.4761 8.27997C46.7886 8.84727 47.5429 9.10397 48.1191 8.80831C50.9709 7.34505 58.8911 4.10694 66.5 8.49994C73.4071 12.4877 73.1856 18.567 72.5501 21.5884C72.3837 22.3799 73.1056 23.2417 73.9121 23.1806C78.2488 22.8521 88.5147 23.4933 88.5147 36.9272C88.5147 50.4249 67.5147 50.426 67.5147 50.426H23.0981C23.0417 50.426 22.9873 50.4214 22.9318 50.4118C12.9339 48.6865 1 43.1824 1 30.7169C1 20.0611 11.1844 16.4609 14.1895 15.6305C14.6647 15.4992 15.0046 15.0651 15.0395 14.5734Z" fill="#D2DEE3"/>
<path d="M19 56.4999L11.5 69.4903M37 56.4999L29.4944 69.4999L21.9889 82.4999M54.5 56.4999L44.3964 73.9999M69 56.4999L62.6547 67.4903M29 1.2606C16.8342 2.93865 15.2381 11.7727 15.0395 14.5734C15.0046 15.0651 14.6647 15.4992 14.1895 15.6305C11.1844 16.4609 1 20.0611 1 30.7169C1 43.1824 12.9339 48.6865 22.9318 50.4118C22.9873 50.4214 23.0417 50.426 23.0981 50.426C40.5858 50.426 67.5147 50.426 67.5147 50.426C67.5147 50.426 88.5147 50.4249 88.5147 36.9272C88.5147 23.4933 78.2488 22.8521 73.9121 23.1806C73.1056 23.2417 72.3837 22.3799 72.5501 21.5884C73.1856 18.567 73.4071 12.4877 66.5 8.49994C58.8911 4.10694 50.9709 7.34505 48.1191 8.80831C47.5429 9.10397 46.7886 8.84727 46.4761 8.27997C45.0447 5.68075 40.4433 -0.317779 29 1.2606Z" stroke="#788DA3" stroke-width="2" stroke-linecap="round"/>
</svg>
