<svg width="31" height="32" viewBox="0 0 31 32" fill="none" xmlns="http://www.w3.org/2000/svg">
<path d="M15.2318 20.35C17.645 20.35 19.6012 18.4024 19.6012 16C19.6012 13.5975 17.645 11.65 15.2318 11.65C12.8187 11.65 10.8624 13.5975 10.8624 16C10.8624 18.4024 12.8187 20.35 15.2318 20.35Z" stroke="#47A0DF" stroke-width="3"/>
<path d="M17.8025 1.7204C17.268 1.5 16.5893 1.5 15.2319 1.5C13.8744 1.5 13.1957 1.5 12.6612 1.7204C12.3075 1.86614 11.9862 2.07985 11.7156 2.3493C11.4449 2.61875 11.2302 2.93866 11.0838 3.29075C10.9499 3.6141 10.896 3.99255 10.8756 4.5421C10.8661 4.9393 10.7556 5.32761 10.5543 5.67071C10.3531 6.01382 10.0677 6.3005 9.72496 6.50395C9.37658 6.69792 8.98447 6.80073 8.58532 6.80275C8.18616 6.80478 7.79302 6.70597 7.44267 6.51555C6.95329 6.25745 6.59937 6.11535 6.24836 6.06895C5.48272 5.96871 4.70844 6.17525 4.0957 6.64315C3.63837 6.9955 3.29755 7.57985 2.61884 8.75C1.94012 9.92015 1.59931 10.5045 1.52503 11.0772C1.47498 11.4549 1.50015 11.8387 1.59912 12.2066C1.69808 12.5746 1.86889 12.9196 2.10179 13.2218C2.31735 13.5002 2.61884 13.7337 3.08637 14.0266C3.77528 14.4572 4.21804 15.1909 4.21804 16C4.21804 16.8091 3.77528 17.5428 3.08637 17.972C2.61884 18.2664 2.31589 18.4998 2.10179 18.7782C1.86889 19.0804 1.69808 19.4254 1.59912 19.7934C1.50015 20.1613 1.47498 20.5451 1.52503 20.9228C1.60077 21.4941 1.94012 22.0799 2.61738 23.25C3.29755 24.4202 3.63691 25.0045 4.0957 25.3568C4.39928 25.5887 4.74577 25.7588 5.11538 25.8573C5.48499 25.9558 5.87048 25.9809 6.24982 25.9311C6.59937 25.8847 6.95329 25.7426 7.44267 25.4845C7.79302 25.294 8.18616 25.1952 8.58532 25.1972C8.98447 25.1993 9.37658 25.3021 9.72496 25.4961C10.4284 25.9021 10.8464 26.6488 10.8756 27.4579C10.896 28.0089 10.9484 28.3859 11.0838 28.7093C11.2302 29.0613 11.4449 29.3813 11.7156 29.6507C11.9862 29.9202 12.3075 30.1339 12.6612 30.2796C13.1957 30.5 13.8744 30.5 15.2319 30.5C16.5893 30.5 17.268 30.5 17.8025 30.2796C18.1562 30.1339 18.4775 29.9202 18.7482 29.6507C19.0188 29.3813 19.2335 29.0613 19.3799 28.7093C19.5139 28.3859 19.5678 28.0089 19.5882 27.4579C19.6173 26.6488 20.0353 25.9006 20.7388 25.4961C21.0872 25.3021 21.4793 25.1993 21.8784 25.1972C22.2776 25.1952 22.6707 25.294 23.0211 25.4845C23.5105 25.7426 23.8644 25.8847 24.2139 25.9311C24.5933 25.9809 24.9788 25.9558 25.3484 25.8573C25.718 25.7588 26.0645 25.5887 26.368 25.3568C26.8268 25.0059 27.1662 24.4202 27.8449 23.25C28.5236 22.0799 28.8644 21.4955 28.9387 20.9228C28.9888 20.5451 28.9636 20.1613 28.8646 19.7934C28.7657 19.4254 28.5949 19.0804 28.362 18.7782C28.1464 18.4998 27.8449 18.2664 27.3774 17.9735C27.0365 17.7667 26.7538 17.4772 26.5559 17.132C26.358 16.7869 26.2512 16.3974 26.2457 16C26.2457 15.1909 26.6885 14.4572 27.3774 14.028C27.8449 13.7337 28.1479 13.5002 28.362 13.2218C28.5949 12.9196 28.7657 12.5746 28.8646 12.2066C28.9636 11.8387 28.9888 11.4549 28.9387 11.0772C28.863 10.5059 28.5236 9.92015 27.8464 8.75C27.1662 7.57985 26.8268 6.9955 26.368 6.64315C26.0645 6.41128 25.718 6.24123 25.3484 6.14271C24.9788 6.04418 24.5933 6.01912 24.2139 6.06895C23.8644 6.11535 23.5105 6.25745 23.0196 6.51555C22.6695 6.70571 22.2766 6.80438 21.8777 6.80235C21.4788 6.80033 21.087 6.69766 20.7388 6.50395C20.396 6.3005 20.1106 6.01382 19.9094 5.67071C19.7082 5.32761 19.5977 4.9393 19.5882 4.5421C19.5678 3.9911 19.5154 3.6141 19.3799 3.29075C19.2335 2.93866 19.0188 2.61875 18.7482 2.3493C18.4775 2.07985 18.1562 1.86614 17.8025 1.7204Z" stroke="#47A0DF" stroke-width="3"/>
</svg>
