<svg width="90" height="90" viewBox="0 0 90 90" fill="none" xmlns="http://www.w3.org/2000/svg">
<path d="M24.2 56.6999V68.5999M19.1 59.5831L24.2 62.6499M29.3 65.7168L24.2 62.6499M19.1 65.7168L24.2 62.6499M29.3 59.1499L24.2 62.6499" stroke="#788DA3" stroke-width="2" stroke-linecap="round"/>
<path d="M42.9 62.6499V74.5499M37.8 65.5331L42.9 68.5999M48 71.6668L42.9 68.5999M37.8 71.6668L42.9 68.5999M48 65.0999L42.9 68.5999" stroke="#788DA3" stroke-width="2" stroke-linecap="round"/>
<path d="M19.1 77.0999V88.9999M14 79.9831L19.1 83.0499M24.2 86.1168L19.1 83.0499M14 86.1168L19.1 83.0499M24.2 79.5499L19.1 83.0499" stroke="#788DA3" stroke-width="2" stroke-linecap="round"/>
<path d="M61.6 54.9999V66.8999M56.5 57.8831L61.6 60.9499M66.7 64.0168L61.6 60.9499M56.5 64.0168L61.6 60.9499M66.7 57.4499L61.6 60.9499" stroke="#788DA3" stroke-width="2" stroke-linecap="round"/>
<path d="M56.5 77.0999V88.9999M51.4 79.9831L56.5 83.0499M61.6 86.1168L56.5 83.0499M51.4 86.1168L56.5 83.0499M61.6 79.5499L56.5 83.0499" stroke="#788DA3" stroke-width="2" stroke-linecap="round"/>
<path d="M15.0395 14.5734C15.2381 11.7727 16.8342 2.93865 29 1.2606C40.4433 -0.317779 45.0447 5.68075 46.4761 8.27997C46.7886 8.84727 47.5429 9.10397 48.1191 8.80831C50.9709 7.34505 58.8911 4.10694 66.5 8.49994C73.4071 12.4877 73.1856 18.567 72.5501 21.5884C72.3837 22.3799 73.1056 23.2417 73.9121 23.1806C78.2488 22.8521 88.5147 23.4933 88.5147 36.9272C88.5147 50.4249 67.5147 50.426 67.5147 50.426H23.0981C23.0417 50.426 22.9873 50.4214 22.9318 50.4118C12.9339 48.6865 1 43.1824 1 30.7169C1 20.0611 11.1844 16.4609 14.1895 15.6305C14.6647 15.4992 15.0046 15.0651 15.0395 14.5734Z" fill="#D2DEE3" stroke="#788DA3" stroke-width="2" stroke-linecap="round"/>
</svg>
