<svg width="87" height="87" viewBox="0 0 87 87" fill="none" xmlns="http://www.w3.org/2000/svg">
<mask id="path-1-inside-1_148_12" fill="white">
<path d="M43.5 68.875C44.3879 68.8751 45.2448 69.2011 45.9083 69.7911C46.5718 70.3811 46.9957 71.1941 47.0996 72.0759L47.125 72.5V76.125C47.124 77.0489 46.7702 77.9376 46.1359 78.6095C45.5017 79.2813 44.6348 79.6856 43.7124 79.7398C42.7901 79.7939 41.8819 79.4938 41.1734 78.9008C40.4648 78.3078 40.0095 77.4666 39.9004 76.5491L39.875 76.125V72.5C39.875 71.5386 40.2569 70.6166 40.9367 69.9367C41.6166 69.2569 42.5386 68.875 43.5 68.875ZM66.3846 61.2988L66.7254 61.5996L69.2629 64.1371C69.913 64.7895 70.2905 65.6648 70.3186 66.5854C70.3467 67.506 70.0233 68.4027 69.4142 69.0935C68.8051 69.7843 67.9559 70.2174 67.039 70.3047C66.1222 70.392 65.2065 70.1271 64.4779 69.5638L64.1371 69.2629L61.5996 66.7254C60.9741 66.1009 60.5982 65.2694 60.5428 64.3873C60.4873 63.5051 60.7561 62.6331 61.2986 61.9352C61.841 61.2374 62.6197 60.7617 63.4883 60.5978C64.3568 60.4338 65.2554 60.5929 66.0149 61.045L66.3846 61.2988ZM25.4004 61.5996C26.0245 62.2238 26.3995 63.0543 26.4548 63.9353C26.5102 64.8163 26.2423 65.6872 25.7012 66.3846L25.4004 66.7254L22.8629 69.2629C22.2105 69.913 21.3352 70.2905 20.4146 70.3186C19.494 70.3467 18.5973 70.0233 17.9065 69.4142C17.2157 68.8051 16.7826 67.9559 16.6953 67.039C16.608 66.1222 16.8729 65.2065 17.4362 64.4779L17.7371 64.1371L20.2746 61.5996C20.9544 60.92 21.8763 60.5383 22.8375 60.5383C23.7987 60.5383 24.7206 60.92 25.4004 61.5996ZM14.5 39.875C15.4239 39.876 16.3126 40.2298 16.9845 40.8641C17.6563 41.4983 18.0606 42.3652 18.1147 43.2876C18.1689 44.2099 17.8688 45.1181 17.2758 45.8266C16.6828 46.5352 15.8416 46.9905 14.9241 47.0996L14.5 47.125H10.875C9.95106 47.124 9.06238 46.7702 8.39054 46.1359C7.71869 45.5017 7.3144 44.6348 7.26025 43.7124C7.2061 42.7901 7.50619 41.8819 8.09921 41.1734C8.69222 40.4648 9.5334 40.0095 10.4509 39.9004L10.875 39.875H14.5ZM76.125 39.875C77.0489 39.876 77.9376 40.2298 78.6095 40.8641C79.2813 41.4983 79.6856 42.3652 79.7397 43.2876C79.7939 44.2099 79.4938 45.1181 78.9008 45.8266C78.3078 46.5352 77.4666 46.9905 76.5491 47.0996L76.125 47.125H72.5C71.5761 47.124 70.6874 46.7702 70.0155 46.1359C69.3437 45.5017 68.9394 44.6348 68.8853 43.7124C68.8311 42.7901 69.1312 41.8819 69.7242 41.1734C70.3172 40.4648 71.1584 40.0095 72.0759 39.9004L72.5 39.875H76.125ZM22.5221 17.4363L22.8629 17.7371L25.4004 20.2746C26.0505 20.927 26.428 21.8023 26.4561 22.7229C26.4842 23.6435 26.1608 24.5402 25.5517 25.231C24.9426 25.9218 24.0934 26.3549 23.1765 26.4422C22.2597 26.5295 21.344 26.2646 20.6154 25.7013L20.2746 25.4004L17.7371 22.8629C17.1139 22.2382 16.74 21.4077 16.6854 20.527C16.6308 19.6464 16.8992 18.776 17.4405 18.0792C17.9817 17.3823 18.7585 16.9067 19.6253 16.7417C20.492 16.5766 21.3893 16.7333 22.1487 17.1825L22.5221 17.4363ZM69.2629 17.7371C69.887 18.3613 70.2619 19.1918 70.3173 20.0728C70.3727 20.9538 70.1048 21.8247 69.5637 22.5221L69.2629 22.8629L66.7254 25.4004C66.073 26.0505 65.1977 26.428 64.2771 26.4561C63.3565 26.4842 62.4598 26.1608 61.769 25.5517C61.0782 24.9426 60.6451 24.0934 60.5578 23.1765C60.4705 22.2597 60.7354 21.344 61.2987 20.6154L61.5996 20.2746L64.1371 17.7371C64.8169 17.0575 65.7388 16.6758 66.7 16.6758C67.6612 16.6758 68.5831 17.0575 69.2629 17.7371ZM43.5 7.25C44.3879 7.25012 45.2448 7.57609 45.9083 8.16609C46.5718 8.7561 46.9957 9.56909 47.0996 10.4509L47.125 10.875V14.5C47.124 15.4239 46.7702 16.3126 46.1359 16.9845C45.5017 17.6563 44.6348 18.0606 43.7124 18.1147C42.7901 18.1689 41.8819 17.8688 41.1734 17.2758C40.4648 16.6828 40.0095 15.8416 39.9004 14.9241L39.875 14.5V10.875C39.875 9.91359 40.2569 8.99156 40.9367 8.31174C41.6166 7.63192 42.5386 7.25 43.5 7.25ZM43.5 25.375C47.0513 25.3748 50.5245 26.4179 53.4881 28.3747C56.4516 30.3315 58.7751 33.1158 60.1698 36.3818C61.5645 39.6478 61.969 43.2516 61.3331 46.7455C60.6972 50.2394 59.0489 53.4696 56.5929 56.0347C54.1369 58.5999 50.9814 60.387 47.5184 61.1742C44.0554 61.9613 40.4375 61.7138 37.114 60.4623C33.7904 59.2109 30.9078 57.0106 28.824 54.1349C26.7403 51.2591 25.5473 47.8346 25.3931 44.2866L25.375 43.5L25.3931 42.7134C25.5958 38.0471 27.5921 33.6392 30.9656 30.4089C34.339 27.1786 38.8293 25.3753 43.5 25.375Z"/>
</mask>
<path d="M43.5 68.875C44.3879 68.8751 45.2448 69.2011 45.9083 69.7911C46.5718 70.3811 46.9957 71.1941 47.0996 72.0759L47.125 72.5V76.125C47.124 77.0489 46.7702 77.9376 46.1359 78.6095C45.5017 79.2813 44.6348 79.6856 43.7124 79.7398C42.7901 79.7939 41.8819 79.4938 41.1734 78.9008C40.4648 78.3078 40.0095 77.4666 39.9004 76.5491L39.875 76.125V72.5C39.875 71.5386 40.2569 70.6166 40.9367 69.9367C41.6166 69.2569 42.5386 68.875 43.5 68.875ZM66.3846 61.2988L66.7254 61.5996L69.2629 64.1371C69.913 64.7895 70.2905 65.6648 70.3186 66.5854C70.3467 67.506 70.0233 68.4027 69.4142 69.0935C68.8051 69.7843 67.9559 70.2174 67.039 70.3047C66.1222 70.392 65.2065 70.1271 64.4779 69.5638L64.1371 69.2629L61.5996 66.7254C60.9741 66.1009 60.5982 65.2694 60.5428 64.3873C60.4873 63.5051 60.7561 62.6331 61.2986 61.9352C61.841 61.2374 62.6197 60.7617 63.4883 60.5978C64.3568 60.4338 65.2554 60.5929 66.0149 61.045L66.3846 61.2988ZM25.4004 61.5996C26.0245 62.2238 26.3995 63.0543 26.4548 63.9353C26.5102 64.8163 26.2423 65.6872 25.7012 66.3846L25.4004 66.7254L22.8629 69.2629C22.2105 69.913 21.3352 70.2905 20.4146 70.3186C19.494 70.3467 18.5973 70.0233 17.9065 69.4142C17.2157 68.8051 16.7826 67.9559 16.6953 67.039C16.608 66.1222 16.8729 65.2065 17.4362 64.4779L17.7371 64.1371L20.2746 61.5996C20.9544 60.92 21.8763 60.5383 22.8375 60.5383C23.7987 60.5383 24.7206 60.92 25.4004 61.5996ZM14.5 39.875C15.4239 39.876 16.3126 40.2298 16.9845 40.8641C17.6563 41.4983 18.0606 42.3652 18.1147 43.2876C18.1689 44.2099 17.8688 45.1181 17.2758 45.8266C16.6828 46.5352 15.8416 46.9905 14.9241 47.0996L14.5 47.125H10.875C9.95106 47.124 9.06238 46.7702 8.39054 46.1359C7.71869 45.5017 7.3144 44.6348 7.26025 43.7124C7.2061 42.7901 7.50619 41.8819 8.09921 41.1734C8.69222 40.4648 9.5334 40.0095 10.4509 39.9004L10.875 39.875H14.5ZM76.125 39.875C77.0489 39.876 77.9376 40.2298 78.6095 40.8641C79.2813 41.4983 79.6856 42.3652 79.7397 43.2876C79.7939 44.2099 79.4938 45.1181 78.9008 45.8266C78.3078 46.5352 77.4666 46.9905 76.5491 47.0996L76.125 47.125H72.5C71.5761 47.124 70.6874 46.7702 70.0155 46.1359C69.3437 45.5017 68.9394 44.6348 68.8853 43.7124C68.8311 42.7901 69.1312 41.8819 69.7242 41.1734C70.3172 40.4648 71.1584 40.0095 72.0759 39.9004L72.5 39.875H76.125ZM22.5221 17.4363L22.8629 17.7371L25.4004 20.2746C26.0505 20.927 26.428 21.8023 26.4561 22.7229C26.4842 23.6435 26.1608 24.5402 25.5517 25.231C24.9426 25.9218 24.0934 26.3549 23.1765 26.4422C22.2597 26.5295 21.344 26.2646 20.6154 25.7013L20.2746 25.4004L17.7371 22.8629C17.1139 22.2382 16.74 21.4077 16.6854 20.527C16.6308 19.6464 16.8992 18.776 17.4405 18.0792C17.9817 17.3823 18.7585 16.9067 19.6253 16.7417C20.492 16.5766 21.3893 16.7333 22.1487 17.1825L22.5221 17.4363ZM69.2629 17.7371C69.887 18.3613 70.2619 19.1918 70.3173 20.0728C70.3727 20.9538 70.1048 21.8247 69.5637 22.5221L69.2629 22.8629L66.7254 25.4004C66.073 26.0505 65.1977 26.428 64.2771 26.4561C63.3565 26.4842 62.4598 26.1608 61.769 25.5517C61.0782 24.9426 60.6451 24.0934 60.5578 23.1765C60.4705 22.2597 60.7354 21.344 61.2987 20.6154L61.5996 20.2746L64.1371 17.7371C64.8169 17.0575 65.7388 16.6758 66.7 16.6758C67.6612 16.6758 68.5831 17.0575 69.2629 17.7371ZM43.5 7.25C44.3879 7.25012 45.2448 7.57609 45.9083 8.16609C46.5718 8.7561 46.9957 9.56909 47.0996 10.4509L47.125 10.875V14.5C47.124 15.4239 46.7702 16.3126 46.1359 16.9845C45.5017 17.6563 44.6348 18.0606 43.7124 18.1147C42.7901 18.1689 41.8819 17.8688 41.1734 17.2758C40.4648 16.6828 40.0095 15.8416 39.9004 14.9241L39.875 14.5V10.875C39.875 9.91359 40.2569 8.99156 40.9367 8.31174C41.6166 7.63192 42.5386 7.25 43.5 7.25ZM43.5 25.375C47.0513 25.3748 50.5245 26.4179 53.4881 28.3747C56.4516 30.3315 58.7751 33.1158 60.1698 36.3818C61.5645 39.6478 61.969 43.2516 61.3331 46.7455C60.6972 50.2394 59.0489 53.4696 56.5929 56.0347C54.1369 58.5999 50.9814 60.387 47.5184 61.1742C44.0554 61.9613 40.4375 61.7138 37.114 60.4623C33.7904 59.2109 30.9078 57.0106 28.824 54.1349C26.7403 51.2591 25.5473 47.8346 25.3931 44.2866L25.375 43.5L25.3931 42.7134C25.5958 38.0471 27.5921 33.6392 30.9656 30.4089C34.339 27.1786 38.8293 25.3753 43.5 25.375Z" fill="#FFDE7D" stroke="#FFBE84" stroke-width="4" mask="url(#path-1-inside-1_148_12)"/>
</svg>
